<?xml version="1.0" standalone="no"?>
<!DOCTYPE svg PUBLIC "-//W3C//DTD SVG 20010904//EN"
 "http://www.w3.org/TR/2001/REC-SVG-20010904/DTD/svg10.dtd">
<svg version="1.0" xmlns="http://www.w3.org/2000/svg"
 width="200.000000pt" height="150.000000pt" viewBox="0 0 200.000000 150.000000"
 preserveAspectRatio="xMidYMid meet">

<g transform="translate(0.000000,150.000000) scale(0.100000,-0.100000)"
fill="#000000" stroke="none">
<path d="M387 885 c-44 -15 -81 -46 -108 -89 -17 -27 -22 -30 -67 -27 -29 1
-65 -4 -88 -14 l-39 -17 42 -13 c64 -19 116 -62 143 -119 37 -74 92 -109 178
-114 55 -2 74 1 107 20 91 53 132 176 87 265 -51 100 -156 144 -255 108z m151
-121 c42 -44 44 -98 7 -143 -53 -62 -133 -60 -184 5 -43 54 -16 139 54 170 42
19 85 8 123 -32z"/>
<path d="M443 736 c8 -21 -16 -39 -31 -24 -9 9 -12 6 -12 -14 0 -15 7 -34 16
-42 18 -19 65 -21 82 -4 17 17 15 64 -4 82 -20 20 -58 22 -51 2z"/>
<path d="M791 854 c-43 -55 -17 -109 64 -134 56 -17 75 -37 75 -77 0 -45 -30
-73 -78 -73 -38 0 -72 23 -72 48 0 7 -4 12 -10 12 -21 0 9 -46 41 -63 43 -22
76 -15 112 24 52 56 24 117 -67 143 -44 13 -56 22 -66 47 -11 27 -11 33 7 57
16 21 29 27 59 27 39 0 51 -13 69 -69 8 -28 18 -11 11 19 -17 67 -105 90 -145
39z"/>
<path d="M1260 720 c0 -100 4 -160 10 -160 6 0 10 60 10 160 0 100 -4 160 -10
160 -6 0 -10 -60 -10 -160z"/>
<path d="M1794 720 c-1 -133 0 -149 6 -80 4 47 10 92 14 101 18 40 108 52 144
19 23 -22 30 -52 35 -145 2 -46 4 -39 5 28 2 86 1 90 -27 118 -37 37 -104 41
-144 9 l-26 -21 -4 68 c-2 37 -3 -6 -3 -97z"/>
<path d="M1418 788 c-48 -10 -88 -59 -88 -109 0 -78 46 -125 121 -123 40 1 89
26 89 45 0 6 -12 1 -26 -10 -29 -23 -92 -28 -125 -11 -42 23 -60 94 -37 145
17 39 58 55 133 55 l67 0 -2 -82 c-3 -114 -1 -138 8 -138 4 0 9 51 10 114 l2
114 -60 4 c-33 1 -75 0 -92 -4z"/>
<path d="M1008 779 c-16 -9 -18 -27 -16 -162 1 -84 4 -119 5 -79 l4 74 26 -26
c36 -36 88 -44 133 -20 76 41 90 138 28 196 -27 25 -37 28 -97 28 -36 0 -74
-5 -83 -11z m165 -19 c79 -62 37 -190 -62 -192 -78 -1 -111 40 -111 137 0 65
11 74 91 75 42 0 63 -5 82 -20z"/>
<path d="M1632 778 c-13 -13 -16 -47 -6 -72 3 -8 22 -20 42 -27 50 -16 62 -27
62 -58 0 -34 -17 -51 -49 -51 -31 0 -44 8 -59 35 -9 15 -11 16 -12 4 -1 -48
89 -70 122 -30 35 45 16 85 -53 110 -38 14 -44 20 -44 45 0 16 7 33 16 39 24
15 66 1 73 -25 5 -15 9 -18 13 -10 15 37 -74 71 -105 40z"/>
<path d="M225 602 c64 -66 72 -73 53 -42 -7 11 -16 20 -21 20 -4 0 -5 6 -1 13
4 6 3 9 -1 4 -5 -4 -27 10 -49 30 -23 21 -14 10 19 -25z"/>
<path d="M1471 484 c0 -11 3 -14 6 -6 3 7 2 16 -1 19 -3 4 -6 -2 -5 -13z"/>
</g>
</svg>
